<svg xmlns="http://www.w3.org/2000/svg" width="1400" height="900" viewBox="0 0 1400 900">
  <defs>
    <linearGradient id="g" x1="0" y1="0" x2="1" y2="1">
      <stop offset="0" stop-color="#10b981" stop-opacity="0.10"/>
      <stop offset="1" stop-color="#84cc16" stop-opacity="0.06"/>
    </linearGradient>

    <!-- ondas -->
    <filter id="blur" x="-20%" y="-20%" width="140%" height="140%">
      <feGaussianBlur stdDeviation="18"/>
    </filter>

    <!-- pontilhado suave -->
    <pattern id="dots" width="18" height="18" patternUnits="userSpaceOnUse">
      <circle cx="2" cy="2" r="1.1" fill="#10b981" fill-opacity="0.14"/>
    </pattern>

    <!-- noise leve -->
    <filter id="noise">
      <feTurbulence type="fractalNoise" baseFrequency="0.9" numOctaves="2" stitchTiles="stitch"/>
      <feColorMatrix type="matrix" values="
        1 0 0 0 0
        0 1 0 0 0
        0 0 1 0 0
        0 0 0 0.06 0"/>
    </filter>
  </defs>

  <rect width="1400" height="900" fill="url(#g)"/>
  <rect width="1400" height="900" fill="url(#dots)" opacity="0.6"/>

  <g filter="url(#blur)">
    <path d="M-50,260 C220,120 480,140 730,240 C980,340 1180,340 1450,220 L1450,430 C1180,520 980,540 730,450 C480,360 220,360 -50,460 Z"
      fill="#10b981" fill-opacity="0.14"/>
    <path d="M-60,520 C240,420 520,440 760,520 C1000,600 1180,620 1460,540 L1460,720 C1180,800 980,820 760,760 C520,700 240,700 -60,780 Z"
      fill="#84cc16" fill-opacity="0.10"/>
  </g>

  <rect width="1400" height="900" filter="url(#noise)"/>
</svg>
